<svg xmlns="http://www.w3.org/2000/svg" width="76" height="76" viewBox="0 0 76 76">
  <!-- 4-pointed sparkle star (personalization signal) -->
  <polygon points="38,2 41,10 50,13 41,16 38,24 35,16 26,13 35,10" fill="#002840"/>
  <!-- 3 recommendation product cards -->
  <rect x="1" y="29" width="22" height="30" fill="#ffd500"/>
  <path d="M21.1,30.9V57.1H2.9V30.9H21.1 M23,29H1V59H23V29Z" fill="#002840"/>
  <rect x="3" y="31" width="18" height="13" fill="#fff"/>
  <rect x="3" y="47" width="13" height="1.9" fill="#fff"/>
  <rect x="3" y="51" width="9" height="1.9" fill="#fff"/>

  <rect x="27" y="29" width="22" height="30" fill="#ffd500"/>
  <path d="M47.1,30.9V57.1H28.9V30.9H47.1 M49,29H27V59H49V29Z" fill="#002840"/>
  <rect x="29" y="31" width="18" height="13" fill="#fff"/>
  <rect x="29" y="47" width="13" height="1.9" fill="#fff"/>
  <rect x="29" y="51" width="9" height="1.9" fill="#fff"/>

  <rect x="53" y="29" width="22" height="30" fill="#ffd500"/>
  <path d="M73.1,30.9V57.1H54.9V30.9H73.1 M75,29H53V59H75V29Z" fill="#002840"/>
  <rect x="55" y="31" width="18" height="13" fill="#fff"/>
  <rect x="55" y="47" width="13" height="1.9" fill="#fff"/>
  <rect x="55" y="51" width="9" height="1.9" fill="#fff"/>
  <!-- "Recommended for you" bottom label bar -->
  <rect x="1" y="63" width="74" height="1.9" fill="#002840"/>
  <rect x="9" y="68" width="20" height="1.9" fill="#002840"/>
  <rect x="33" y="68" width="14" height="1.9" fill="#002840"/>
  <rect x="51" y="68" width="16" height="1.9" fill="#002840"/>
</svg>
