<svg xmlns="http://www.w3.org/2000/svg" width="76" height="76" viewBox="0 0 76 76">
  <!-- 3 tall category spotlight cards -->
  <!-- Card 1 -->
  <rect x="1" y="1" width="22" height="74" fill="#ffd500"/>
  <path d="M21.1,2.9V73.1H2.9V2.9H21.1 M23,1H1V75H23V1Z" fill="#002840"/>
  <rect x="3" y="3" width="18" height="36" fill="#fff"/>
  <rect x="3" y="43" width="16" height="2.5" fill="#fff"/>
  <rect x="3" y="49" width="18" height="1.9" fill="#fff"/>
  <rect x="3" y="53" width="13" height="1.9" fill="#fff"/>
  <rect x="3" y="64" width="18" height="8" rx="1" fill="#002840"/>
  <!-- Card 2 -->
  <rect x="27" y="1" width="22" height="74" fill="#ffd500"/>
  <path d="M47.1,2.9V73.1H28.9V2.9H47.1 M49,1H27V75H49V1Z" fill="#002840"/>
  <rect x="29" y="3" width="18" height="36" fill="#fff"/>
  <rect x="29" y="43" width="16" height="2.5" fill="#fff"/>
  <rect x="29" y="49" width="18" height="1.9" fill="#fff"/>
  <rect x="29" y="53" width="13" height="1.9" fill="#fff"/>
  <rect x="29" y="64" width="18" height="8" rx="1" fill="#002840"/>
  <!-- Card 3 -->
  <rect x="53" y="1" width="22" height="74" fill="#ffd500"/>
  <path d="M73.1,2.9V73.1H54.9V2.9H73.1 M75,1H53V75H75V1Z" fill="#002840"/>
  <rect x="55" y="3" width="18" height="36" fill="#fff"/>
  <rect x="55" y="43" width="16" height="2.5" fill="#fff"/>
  <rect x="55" y="49" width="18" height="1.9" fill="#fff"/>
  <rect x="55" y="53" width="13" height="1.9" fill="#fff"/>
  <rect x="55" y="64" width="18" height="8" rx="1" fill="#002840"/>
</svg>
