<svg xmlns="http://www.w3.org/2000/svg" width="76" height="76" viewBox="0 0 76 76">
  <!-- Search bar -->
  <rect x="1" y="2" width="74" height="12" fill="#ffd500"/>
  <path d="M73.1,3.9V12.1H2.9V3.9H73.1 M75,2H1V14H75V2Z" fill="#002840"/>
  <!-- Placeholder text line -->
  <rect x="5" y="7.1" width="28" height="1.9" fill="#fff"/>
  <!-- Magnifying glass -->
  <circle cx="64" cy="8" r="5" fill="#002840"/>
  <circle cx="64" cy="8" r="3.2" fill="#fff"/>
  <rect x="66.5" y="11" width="1.9" height="4.5" rx="0.9" transform="rotate(45 67.45 13.25)" fill="#002840"/>
  <!-- Dropdown suggestions panel -->
  <rect x="1" y="18" width="74" height="56" fill="#ffd500"/>
  <path d="M73.1,19.9V72.1H2.9V19.9H73.1 M75,18H1V74H75V18Z" fill="#002840"/>
  <!-- Suggestion row 1 (highlighted / active) -->
  <rect x="3" y="22" width="70" height="9" fill="#002840" opacity="0.12"/>
  <rect x="7" y="25" width="38" height="2" fill="#fff"/>
  <!-- Suggestion row 2 -->
  <rect x="7" y="36" width="30" height="2" fill="#fff"/>
  <!-- Suggestion row 3 -->
  <rect x="7" y="47" width="44" height="2" fill="#fff"/>
  <!-- Suggestion row 4 -->
  <rect x="7" y="58" width="25" height="2" fill="#fff"/>
  <!-- Divider between rows -->
  <rect x="3" y="32" width="70" height="0.8" fill="#002840" opacity="0.15"/>
  <rect x="3" y="43" width="70" height="0.8" fill="#002840" opacity="0.15"/>
  <rect x="3" y="54" width="70" height="0.8" fill="#002840" opacity="0.15"/>
</svg>
