<svg xmlns="http://www.w3.org/2000/svg" width="76" height="76" viewBox="0 0 76 76">
  <!-- Large featured card (left) -->
  <rect x="1" y="1" width="43" height="74" fill="#ffd500"/>
  <path d="M42.1,2.9V73.1H2.9V2.9H42.1 M44,1H1V75H44V1Z" fill="#002840"/>
  <!-- Featured ribbon (top-right corner triangle) -->
  <polygon points="44,1 44,14 31,1" fill="#002840"/>
  <!-- Hero image -->
  <rect x="3" y="3" width="39" height="40" fill="#fff"/>
  <!-- Title -->
  <rect x="3" y="47" width="35" height="2.5" fill="#fff"/>
  <!-- Desc -->
  <rect x="3" y="53" width="38" height="1.9" fill="#fff"/>
  <!-- Price -->
  <rect x="3" y="57" width="22" height="1.9" fill="#fff"/>
  <!-- CTA button -->
  <rect x="3" y="63" width="39" height="9" rx="2" fill="#002840"/>
  <!-- Small card 1 (top-right) -->
  <rect x="48" y="1" width="27" height="34" fill="#ffd500"/>
  <path d="M73.1,2.9V33.1H49.9V2.9H73.1 M75,1H48V35H75V1Z" fill="#002840"/>
  <rect x="50" y="3" width="23" height="19" fill="#fff"/>
  <rect x="50" y="25" width="18" height="1.9" fill="#fff"/>
  <rect x="50" y="29" width="12" height="1.9" fill="#fff"/>
  <!-- Small card 2 (bottom-right) -->
  <rect x="48" y="39" width="27" height="35" fill="#ffd500"/>
  <path d="M73.1,40.9V72.1H49.9V40.9H73.1 M75,39H48V74H75V39Z" fill="#002840"/>
  <rect x="50" y="41" width="23" height="20" fill="#fff"/>
  <rect x="50" y="64" width="18" height="1.9" fill="#fff"/>
  <rect x="50" y="68" width="12" height="1.9" fill="#fff"/>
</svg>
