<svg xmlns="http://www.w3.org/2000/svg" width="76" height="76" viewBox="0 0 76 76">
  <!-- Breadcrumb: root tab (dark = visited) -->
  <rect x="1" y="2" width="21" height="11" fill="#002840"/>
  <rect x="5" y="6.1" width="13" height="1.9" fill="#fff"/>
  <!-- Arrow 1 -->
  <polygon points="23,4.5 27,7.5 23,10.5" fill="#002840"/>
  <!-- Breadcrumb: category tab (blue = selected) -->
  <rect x="28" y="2" width="22" height="11" fill="#ffd500"/>
  <path d="M48.1,3.9V11.1H29.9V3.9H48.1 M50,2H28V13H50V2Z" fill="#002840"/>
  <rect x="32" y="6.1" width="14" height="1.9" fill="#fff"/>
  <!-- Arrow 2 -->
  <polygon points="51,4.5 55,7.5 51,10.5" fill="#002840"/>
  <!-- Breadcrumb: sub-category tab (white = drill-down) -->
  <rect x="56" y="2" width="19" height="11" fill="#fff"/>
  <path d="M73.1,3.9V11.1H57.9V3.9H73.1 M75,2H56V13H75V2Z" fill="#002840"/>
  <rect x="60" y="6.1" width="11" height="1.9" fill="#002840"/>
  <!-- 2x2 product grid -->
  <rect x="1" y="17" width="35" height="26" fill="#ffd500"/>
  <path d="M34.1,18.9V41.1H2.9V18.9H34.1 M36,17H1V43H36V17Z" fill="#002840"/>
  <rect x="3" y="19" width="30" height="14" fill="#fff"/>
  <rect x="3" y="36" width="22" height="1.9" fill="#fff"/>

  <rect x="40" y="17" width="35" height="26" fill="#ffd500"/>
  <path d="M73.1,18.9V41.1H41.9V18.9H73.1 M75,17H40V43H75V17Z" fill="#002840"/>
  <rect x="42" y="19" width="30" height="14" fill="#fff"/>
  <rect x="42" y="36" width="22" height="1.9" fill="#fff"/>

  <rect x="1" y="47" width="35" height="27" fill="#ffd500"/>
  <path d="M34.1,48.9V72.1H2.9V48.9H34.1 M36,47H1V74H36V47Z" fill="#002840"/>
  <rect x="3" y="49" width="30" height="14" fill="#fff"/>
  <rect x="3" y="66" width="22" height="1.9" fill="#fff"/>

  <rect x="40" y="47" width="35" height="27" fill="#ffd500"/>
  <path d="M73.1,48.9V72.1H41.9V48.9H73.1 M75,47H40V74H75V47Z" fill="#002840"/>
  <rect x="42" y="49" width="30" height="14" fill="#fff"/>
  <rect x="42" y="66" width="22" height="1.9" fill="#fff"/>
</svg>
