<svg xmlns="http://www.w3.org/2000/svg" width="76" height="76" viewBox="0 0 76 76">
  <!-- Search bar -->
  <rect x="1" y="2" width="74" height="12" fill="#ffd500"/>
  <path d="M73.1,3.9V12.1H2.9V3.9H73.1 M75,2H1V14H75V2Z" fill="#002840"/>
  <!-- Placeholder text line -->
  <rect x="5" y="7.1" width="28" height="1.9" fill="#fff"/>
  <!-- Magnifying glass -->
  <circle cx="64" cy="8" r="5" fill="#002840"/>
  <circle cx="64" cy="8" r="3.2" fill="#fff"/>
  <rect x="66.5" y="11" width="1.9" height="4.5" rx="0.9" transform="rotate(45 67.45 13.25)" fill="#002840"/>
  <!-- Product card 1 -->
  <rect x="1" y="19" width="22" height="34" fill="#ffd500"/>
  <path d="M21.1,20.9V51.1H2.9V20.9H21.1 M23,19H1V53H23V19Z" fill="#002840"/>
  <rect x="3" y="21" width="18" height="15" fill="#fff"/>
  <rect x="3" y="39" width="13" height="1.9" fill="#fff"/>
  <rect x="3" y="43" width="9" height="1.9" fill="#fff"/>
  <!-- Product card 2 -->
  <rect x="27" y="19" width="22" height="34" fill="#ffd500"/>
  <path d="M47.1,20.9V51.1H28.9V20.9H47.1 M49,19H27V53H49V19Z" fill="#002840"/>
  <rect x="29" y="21" width="18" height="15" fill="#fff"/>
  <rect x="29" y="39" width="13" height="1.9" fill="#fff"/>
  <rect x="29" y="43" width="9" height="1.9" fill="#fff"/>
  <!-- Product card 3 -->
  <rect x="53" y="19" width="22" height="34" fill="#ffd500"/>
  <path d="M73.1,20.9V51.1H54.9V20.9H73.1 M75,19H53V53H75V19Z" fill="#002840"/>
  <rect x="55" y="21" width="18" height="15" fill="#fff"/>
  <rect x="55" y="39" width="13" height="1.9" fill="#fff"/>
  <rect x="55" y="43" width="9" height="1.9" fill="#fff"/>
  <!-- Pagination dots -->
  <circle cx="31" cy="62" r="2" fill="#002840"/>
  <circle cx="38" cy="62" r="3" fill="#002840"/>
  <circle cx="45" cy="62" r="2" fill="#002840"/>
</svg>
